<svg xmlns="http://www.w3.org/2000/svg" width="52.126" height="40.818" viewBox="0 0 52.126 40.818">
  <path id="path1492-6" d="M796.4,482.2a10.406,10.406,0,0,1,.441-3.307c.441-1.323,1.323-2.646,2.425-2.426s2.425,1.984,3.528,3.087a13.4,13.4,0,0,0,3.087,2.2,35.92,35.92,0,0,1,3.276,2.21,20.828,20.828,0,0,1,2.111,2c.882.882,2.268,2.2,2.791,1.963s.186-2.012-.1-3.27a5.6,5.6,0,0,0-1.158-2.733c-.64-.737-1.688-1.475-2.813-2.542a22.842,22.842,0,0,1-3.221-3.822c-.893-1.358-1.475-2.677-2.134-3.842a6.991,6.991,0,0,0-2.445-2.775,4.52,4.52,0,0,0-4.074-.136,16.941,16.941,0,0,0-5.161,3.706,14.636,14.636,0,0,0-3.376,5.142,21.171,21.171,0,0,0-1.455,6.733,8.434,8.434,0,0,0,1.106,4.831,3.952,3.952,0,0,0,3.066,1.688,25.617,25.617,0,0,0,5.374.058,55.989,55.989,0,0,0,5.627-.757,13.7,13.7,0,0,1,3.413-.461c.755.1,1.177.575.947,1.253a6.168,6.168,0,0,1-2.435,2.442,21.741,21.741,0,0,1-5.071,2.425c-1.984.661-4.189,1.1-5.292,1.985s-1.1,2.2-.882,3.528a8,8,0,0,0,1.544,3.748,4.856,4.856,0,0,0,3.528,1.984c1.323,0,2.646-.882,3.969-1.984s2.646-2.425,3.969-3.748,2.646-2.646,3.528-3.748a15.439,15.439,0,0,0,1.777-2.858c.454-.874.92-1.74,1.172-2.386s.291-1.073.388-1.054.252.485.809,1.342a46.893,46.893,0,0,0,2.948,3.842c1.434,1.736,3.343,3.96,4.739,5.513s2.278,2.435,3.16,3.317,1.764,1.764,2.872,1.837a6.09,6.09,0,0,0,3.768-1.748,14.677,14.677,0,0,0,3.3-3.7c.656-1.176.649-2.091-.016-2.77s-1.988-1.119-3.752-1.781a29.09,29.09,0,0,1-5.953-2.866c-1.985-1.323-3.748-3.087-4.071-4.082s.8-1.223,2.287-1.045,3.354.76,5.119.953a14.245,14.245,0,0,0,4.947-.369,9.132,9.132,0,0,0,3.958-1.863,6.739,6.739,0,0,0,2.173-3.783,9.471,9.471,0,0,0-.66-4.909,30.887,30.887,0,0,0-2.91-5.84,26.974,26.974,0,0,0-3.783-4.792,7.689,7.689,0,0,0-3.3-2.1,3.9,3.9,0,0,0-2.542.194c-.66.291-1.087.718-1.766,1.9s-1.61,3.124-2.7,4.909a35.785,35.785,0,0,1-3.453,4.715c-1.125,1.3-2.134,2.27-2.7,3.1a5.707,5.707,0,0,0-.84,2.869c-.161,1.336-.366,3.309.469,3.425s2.708-1.624,3.81-2.947,1.434-2.228,2.261-3.343,2.15-2.437,3.252-3.98,1.984-3.307,3.087-2.866,2.425,3.086,3.087,5.071a6.2,6.2,0,0,1,.221,4.41,4.51,4.51,0,0,1-3.136,2.578,23.048,23.048,0,0,1-6.822.858,40.986,40.986,0,0,1-5.582-.643,20.107,20.107,0,0,0-4.307-.155c-1.494.1-3.2.33-4.792.5a31.153,31.153,0,0,1-4.6.235,7.512,7.512,0,0,1-4.141-1.059,5.639,5.639,0,0,1-1.678-2.76,2.8,2.8,0,0,1-.221-1.323Z" transform="translate(-788.113 -466.378)" fill="#3e3e3e"/>
</svg>
