<svg xmlns="http://www.w3.org/2000/svg" width="52.126" height="41.942" viewBox="0 0 52.126 41.942">
  <g id="layer1-2-6" transform="translate(-350.294 -120.721)">
    <g id="g3920-0-0" transform="translate(-1230.378 -1010.906)">
      <g id="g2082-4-9" transform="translate(1114.854 1013.887)">
        <path id="path1492-6-1" d="M477.309,135.348a4.838,4.838,0,0,1-.058-1.766c.078-.64.233-1.339.582-1.416s.893.466,1.552,1.067A13.649,13.649,0,0,0,481.694,135a11.548,11.548,0,0,0,2.988,1.145,29.1,29.1,0,0,0,3.434.64,3.988,3.988,0,0,0,2.115-.116,1.754,1.754,0,0,0,1.048-1.3,2.627,2.627,0,0,0-.776-2.076c-.64-.737-1.688-1.475-2.813-2.542a22.845,22.845,0,0,1-3.221-3.822c-.893-1.358-1.475-2.677-2.134-3.842a6.991,6.991,0,0,0-2.445-2.775,4.521,4.521,0,0,0-4.074-.136,16.941,16.941,0,0,0-5.161,3.706,14.635,14.635,0,0,0-3.376,5.142,21.17,21.17,0,0,0-1.455,6.733,8.434,8.434,0,0,0,1.106,4.831,3.952,3.952,0,0,0,3.066,1.688,25.617,25.617,0,0,0,5.374.058,55.977,55.977,0,0,0,5.627-.757,22.49,22.49,0,0,1,3.085-.524c.427.039.194.388-.524.757a22.1,22.1,0,0,1-3.376,1.184c-1.455.427-3.163.892-4.715,1.378s-2.949.99-3.492,2.037-.233,2.639.582,4.23a15.9,15.9,0,0,0,3.745,4.579,18.9,18.9,0,0,0,5.258,3.279,8.56,8.56,0,0,0,4.268.66c.931-.175,1.2-.679,1.572-1.863s.834-3.046,1.378-4.85,1.164-3.551,1.61-5.025a34.55,34.55,0,0,0,.873-3.492c.155-.815.194-1.242.291-1.222s.252.485.427,1.475.369,2.5.834,4.424,1.2,4.249,1.9,6.209,1.358,3.551,2.387,4.307,2.425.679,4.171.213a19.411,19.411,0,0,0,5.549-2.464,15.872,15.872,0,0,0,4.074-4.055c1.048-1.475,1.824-2.988,1.746-4.113s-1.009-1.863-2.309-2.619-2.968-1.533-4.637-2.542a40.271,40.271,0,0,1-4.074-2.852c-.737-.6-.543-.563.485-.252a26.863,26.863,0,0,0,4.656,1.086,14.244,14.244,0,0,0,4.947-.369,9.132,9.132,0,0,0,3.958-1.863,6.739,6.739,0,0,0,2.173-3.783,9.469,9.469,0,0,0-.66-4.909,30.877,30.877,0,0,0-2.91-5.84,26.973,26.973,0,0,0-3.783-4.792,7.689,7.689,0,0,0-3.3-2.1,3.9,3.9,0,0,0-2.542.194c-.66.291-1.087.718-1.766,1.9s-1.61,3.124-2.7,4.909a35.789,35.789,0,0,1-3.454,4.715c-1.125,1.3-2.134,2.27-2.7,3.1a2.242,2.242,0,0,0-.446,2.115,1.993,1.993,0,0,0,1.649,1.164,8.178,8.178,0,0,0,3.124-.466,27.44,27.44,0,0,0,3.745-1.378c1.222-.563,2.348-1.222,3.182-1.63s1.378-.563,1.727-.388.5.679.349,1.455a5.926,5.926,0,0,1-1.339,2.619,7.006,7.006,0,0,1-2.91,1.785,12.21,12.21,0,0,1-4.327.776,40.531,40.531,0,0,1-4.947-.621,20.105,20.105,0,0,0-4.307-.155c-1.494.1-3.2.33-4.792.5a13.05,13.05,0,0,1-4.171.019,4.507,4.507,0,0,1-2.348-1.513,3.869,3.869,0,0,1-.912-1.63Z" fill="#f3b730"/>
        <path id="path1496-3-4" d="M497.914,132.9a10.554,10.554,0,0,0-3.318-.99,25.921,25.921,0,0,0-4.366-.252,14.711,14.711,0,0,0-3.2.427,5.925,5.925,0,0,0-2.581,1.106,3.253,3.253,0,0,0-.834,2.387,12.575,12.575,0,0,0,.33,3.26,6.48,6.48,0,0,0,3.26,4.443,7.351,7.351,0,0,0,2.677.951,10.886,10.886,0,0,0,3.8.019,5.827,5.827,0,0,0,2.658-1.475,8.576,8.576,0,0,0,1.979-2.309,11.14,11.14,0,0,0,1.125-3.279,5.476,5.476,0,0,0-.039-2.658,2.826,2.826,0,0,0-1.494-1.63Z" fill="#f3b730"/>
      </g>
    </g>
  </g>
</svg>
