<?xml version="1.0" encoding="UTF-8" standalone="no"?>
<svg
   xmlns:osb="http://www.openswatchbook.org/uri/2009/osb"
   xmlns:dc="http://purl.org/dc/elements/1.1/"
   xmlns:cc="http://creativecommons.org/ns#"
   xmlns:rdf="http://www.w3.org/1999/02/22-rdf-syntax-ns#"
   xmlns:svg="http://www.w3.org/2000/svg"
   xmlns="http://www.w3.org/2000/svg"
   width="317.63464mm"
   height="82.757629mm"
   viewBox="0 0 317.63464 82.757628"
   version="1.1"
   id="svg8">
  <defs
     id="defs2">
    <rect
       x="294.1694"
       y="694.00208"
       width="216.73155"
       height="49.855064"
       id="rect2288" />
    <rect
       x="294.1694"
       y="646.64166"
       width="109.80208"
       height="40.745838"
       id="rect2246" />
    <rect
       x="184.4146"
       y="31.088547"
       width="109.80208"
       height="46.396572"
       id="rect4231" />
    <rect
       x="294.21667"
       y="31.088547"
       width="0"
       height="38.936069"
       id="rect3502" />
    <rect
       x="148.16667"
       y="1081.907"
       width="1037.1667"
       height="336.25967"
       id="rect6326" />
    <rect
       x="867.83331"
       y="3175"
       width="910.16669"
       height="296.33334"
       id="rect6314" />
    <rect
       x="1820.3333"
       y="3217.3333"
       width="846.66669"
       height="169.33333"
       id="rect6302" />
    <rect
       x="113.32228"
       y="786.84149"
       width="1024.1768"
       height="243.74982"
       id="rect2516" />
    <linearGradient
       id="linearGradient1757"
       osb:paint="gradient">
      <stop
         style="stop-color:#cccccc;stop-opacity:1;"
         offset="0"
         id="stop1753" />
      <stop
         style="stop-color:#cccccc;stop-opacity:0;"
         offset="1"
         id="stop1755" />
    </linearGradient>
    <linearGradient
       id="linearGradient1324"
       osb:paint="gradient">
      <stop
         style="stop-color:#000000;stop-opacity:1;"
         offset="0"
         id="stop1320" />
      <stop
         style="stop-color:#000000;stop-opacity:0;"
         offset="1"
         id="stop1322" />
    </linearGradient>
    <rect
       x="2592.9167"
       y="846.66669"
       width="137.58266"
       height="142.27904"
       id="rect1938" />
    <rect
       x="148.16667"
       y="1081.907"
       width="1037.1667"
       height="336.25967"
       id="rect6326-9" />
    <rect
       x="867.83331"
       y="3175"
       width="829.00525"
       height="278.31821"
       id="rect6314-7" />
    <rect
       x="1820.3333"
       y="3217.3333"
       width="846.66669"
       height="169.33333"
       id="rect6302-6" />
    <rect
       x="113.32228"
       y="786.84149"
       width="1024.1768"
       height="243.74982"
       id="rect2516-0" />
    <rect
       x="2592.9167"
       y="846.66669"
       width="137.58266"
       height="142.27904"
       id="rect1938-1" />
    <rect
       x="2592.9167"
       y="846.66669"
       width="137.58266"
       height="142.27904"
       id="rect1963" />
    <rect
       x="2592.9167"
       y="846.66669"
       width="137.58266"
       height="142.27904"
       id="rect1938-3" />
    <rect
       x="2592.9167"
       y="846.66669"
       width="137.58266"
       height="142.27904"
       id="rect2290" />
    <rect
       x="4.5357141"
       y="60.476189"
       width="220.36012"
       height="140.60715"
       id="rect6780" />
    <rect
       x="184.4146"
       y="31.088547"
       width="109.80208"
       height="46.396572"
       id="rect4231-5" />
    <rect
       x="294.21667"
       y="31.088547"
       width="0"
       height="38.936069"
       id="rect3502-8" />
    <rect
       x="148.16667"
       y="1081.907"
       width="1037.1667"
       height="336.25967"
       id="rect6326-6" />
    <rect
       x="867.83331"
       y="3175"
       width="910.16669"
       height="296.33334"
       id="rect6314-0" />
    <rect
       x="1820.3333"
       y="3217.3333"
       width="846.66669"
       height="169.33333"
       id="rect6302-1" />
    <rect
       x="113.32228"
       y="786.84149"
       width="1024.1768"
       height="243.74982"
       id="rect2516-4" />
    <rect
       x="2592.9167"
       y="846.66669"
       width="137.58266"
       height="142.27904"
       id="rect1938-8" />
    <rect
       x="148.16667"
       y="1081.907"
       width="1037.1667"
       height="336.25967"
       id="rect6326-9-5" />
    <rect
       x="867.83331"
       y="3175"
       width="829.00525"
       height="278.31821"
       id="rect6314-7-5" />
    <rect
       x="1820.3333"
       y="3217.3333"
       width="846.66669"
       height="169.33333"
       id="rect6302-6-5" />
    <rect
       x="113.32228"
       y="786.84149"
       width="1024.1768"
       height="243.74982"
       id="rect2516-0-1" />
    <rect
       x="2592.9167"
       y="846.66669"
       width="137.58266"
       height="142.27904"
       id="rect1938-1-2" />
    <rect
       x="2592.9167"
       y="846.66669"
       width="137.58266"
       height="142.27904"
       id="rect1963-6" />
    <rect
       x="2592.9167"
       y="846.66669"
       width="137.58266"
       height="142.27904"
       id="rect1938-3-8" />
    <rect
       x="2592.9167"
       y="846.66669"
       width="137.58266"
       height="142.27904"
       id="rect2290-9" />
    <rect
       x="4.5357141"
       y="60.476189"
       width="220.36012"
       height="140.60715"
       id="rect6780-3" />
  </defs>
  <metadata
     id="metadata5">
    <rdf:RDF>
      <cc:Work
         rdf:about="">
        <dc:format>image/svg+xml</dc:format>
        <dc:type
           rdf:resource="http://purl.org/dc/dcmitype/StillImage" />
        <dc:title></dc:title>
      </cc:Work>
    </rdf:RDF>
  </metadata>
  <g
     id="layer1"
     transform="translate(10.665553,63.511642)">
    <g
       id="g2758"
       transform="matrix(-1.0002815,0,0,-1.0002815,296.34525,-44.271887)">
      <g
         id="g2050"
         transform="translate(-10.620835,-38.012848)">
        <g
           id="layer1-6"
           transform="translate(12.038309,-134.0255)">
          <text
             xml:space="preserve"
             id="text3500"
             style="font-style:normal;font-weight:normal;font-size:10.5833px;line-height:1.25;font-family:sans-serif;white-space:pre;shape-inside:url(#rect3502);fill:#000000;fill-opacity:1;stroke:none;" />
          <path
             style="fill:#cccccc;fill-opacity:1;stroke:none;stroke-width:0.252276px;stroke-linecap:butt;stroke-linejoin:miter;stroke-opacity:1"
             d="m 40.915859,134.99668 c -52.924669,2.37989 -52.940402,9.36706 -52.948269,14.12066 -0.0079,4.7536 -0.0079,7.27351 1e-6,11.37337 0.0079,4.09986 0.0236,9.7793 2.1590787,15.94006 2.1354787,6.16075 6.3902624,12.80207 12.6890433,14.42631 6.2987809,1.62425 14.640812,-1.76838 21.967729,-5.7372 7.326916,-3.96883 13.63784,-8.51336 18.80891,-12.60424 5.171071,-4.09088 9.201688,-7.72763 13.343837,-9.51462 4.142149,-1.78698 8.395069,-1.72398 10.991813,-0.0358 2.596743,1.68815 3.537161,5.00092 5.799093,8.40784 2.261933,3.40692 5.844866,6.90752 9.18186,8.21232 3.336995,1.30479 6.427696,0.41388 10.19145,-1.08456 3.763754,-1.49843 8.200155,-3.60421 12.526655,-6.43907 4.32649,-2.83486 8.54265,-6.3985 12.69102,-9.56693 4.14836,-3.16844 8.22843,-5.9413 11.79781,-7.08477 3.56937,-1.14348 6.6274,-0.65753 7.92467,3.03747 1.29727,3.69499 0.83393,10.59842 3.02243,14.53624 2.18849,3.93782 7.02825,4.90971 12.17104,3.41123 5.1428,-1.49849 10.58825,-5.46707 16.55425,-9.97194 5.96601,-4.50487 12.45187,-9.54549 18.06697,-9.26185 5.6151,0.28365 10.35858,5.8912 18.8834,8.81651 8.52482,2.92531 20.82993,3.16829 31.08663,2.64179 10.2567,-0.5265 18.46382,-1.82236 25.61129,-3.15881 7.14747,-1.33645 13.23443,-2.7133 20.06964,-4.26995 6.8352,-1.55664 14.41782,-3.29289 18.20927,-4.16104 3.79145,-0.86815 3.79145,-0.86815 3.79145,-4.04968 0,-3.18152 0,-9.54452 -52.91759,-13.84007 -52.9176,-4.29555 -158.748811,-6.52313 -211.673481,-4.14324 z"
             id="path3774" />
          <text
             xml:space="preserve"
             id="text2244"
             style="font-style:normal;font-weight:normal;font-size:10.5833px;line-height:1.25;font-family:sans-serif;white-space:pre;shape-inside:url(#rect2246);fill:#000000;fill-opacity:1;stroke:none;" />
        </g>
        <g
           id="layer2"
           style="display:inline"
           transform="translate(11.99104,-134.0255)" />
      </g>
      <rect
         style="fill:#cccccc;fill-opacity:1;stroke:none;stroke-width:0.499999;paint-order:stroke markers fill"
         id="rect2709"
         width="317.5"
         height="42.333332"
         x="-10.58333"
         y="-63.499996" />
    </g>
  </g>
</svg>
