<svg xmlns="http://www.w3.org/2000/svg" width="12.49" height="16.931" viewBox="0 0 3.305 4.48" fill="#ffd259"><path d="M.17.677C.262.557.448.317.78.17s.813-.2 1.23-.153.774.194.99.374.294.394.302.654-.054.567-.2.834a1.85 1.85 0 01-.635.654c-.255.16-.534.254-.774.32s-.44.107-.573.174-.194.16-.21.254.016.187-.023.254-.147.107-.286.1-.31-.06-.41-.153-.132-.227-.14-.4a2.04 2.04 0 01.054-.567c.046-.18.124-.327.27-.36s.364.047.627.04.573-.1.805-.26.387-.387.395-.58-.132-.354-.325-.4-.44.02-.612.107-.263.194-.38.24-.255.033-.395-.007-.28-.107-.348-.193S.076.904.076.85s0-.053.094-.173zM.41 3.967c-.078 0-.233.001-.32.056s-.105.164-.08.25.096.146.224.18.317.045.463-.028.252-.23.21-.32-.232-.113-.326-.125-.095-.012-.173-.01z"/></svg>