<?xml version="1.0" encoding="UTF-8" standalone="no"?>
<svg
   xmlns:dc="http://purl.org/dc/elements/1.1/"
   xmlns:cc="http://creativecommons.org/ns#"
   xmlns:rdf="http://www.w3.org/1999/02/22-rdf-syntax-ns#"
   xmlns:svg="http://www.w3.org/2000/svg"
   xmlns="http://www.w3.org/2000/svg"
   width="209.62625mm"
   height="30.40217mm"
   viewBox="0 0 209.62625 30.40217"
   version="1.1"
   id="svg6215">
  <defs
     id="defs6209">
    <rect
       x="4.5357141"
       y="60.476189"
       width="220.36012"
       height="140.60715"
       id="rect6780" />
  </defs>
  <metadata
     id="metadata6212">
    <rdf:RDF>
      <cc:Work
         rdf:about="">
        <dc:format>image/svg+xml</dc:format>
        <dc:type
           rdf:resource="http://purl.org/dc/dcmitype/StillImage" />
        <dc:title></dc:title>
      </cc:Work>
    </rdf:RDF>
  </metadata>
  <g
     id="layer1"
     transform="translate(32.732752,-88.081291)">
    <g
       aria-label="KALENDARZ ADWENTOWY PROGRAMISTY"
       transform="translate(-48.002976,25.702381)"
       id="text6778"
       style="font-style:normal;font-weight:normal;font-size:10.5833px;line-height:0;font-family:sans-serif;white-space:pre;shape-inside:url(#rect6780);fill:#ffd259;fill-opacity:1;stroke:none">
      <path
         d="m 15.270224,76.484408 v -0.98778 h 0.612424 q 0.414867,0 0.691446,-0.217311 0.296334,-0.237067 0.296334,-0.968025 v -9.759266 q 0,-0.711202 -0.276579,-0.948269 -0.256822,-0.237067 -0.67169,-0.237067 h -0.651935 v -0.98778 h 5.847658 v 0.98778 h -0.553157 q -0.395112,0 -0.651935,0.237067 -0.237067,0.237067 -0.237067,0.98778 v 5.175967 l 2.746028,-3.872097 q 0.513646,-0.711202 0.750713,-1.165581 0.256823,-0.454378 0.256823,-0.829735 0,-0.296334 -0.217312,-0.414867 -0.217311,-0.13829 -0.770468,-0.13829 V 62.37891 h 4.682077 v 0.968024 q -0.711201,0 -1.303869,0.49389 -0.572913,0.474135 -1.185336,1.264359 l -2.331161,2.983095 3.417719,5.768636 q 0.513645,0.869246 0.928513,1.264358 0.434623,0.375356 0.98778,0.375356 h 0.07902 v 0.98778 h -1.145825 q -1.185336,0 -1.876782,-0.197556 -0.67169,-0.197556 -1.106313,-0.67169 -0.414868,-0.474134 -0.829735,-1.284114 l -2.29165,-4.286965 -0.790224,1.007535 v 3.220163 q 0,0.750713 0.276578,0.98778 0.276579,0.237067 0.691446,0.237067 h 0.474135 v 0.98778 z"
         style="font-style:normal;font-variant:normal;font-weight:bold;font-stretch:condensed;font-size:19.7556px;line-height:1.05;font-family:'Noto Serif';-inkscape-font-specification:'Noto Serif Bold Condensed';letter-spacing:0.0529167px"
         id="path7043" />
      <path
         d="m 27.777617,76.484408 v -0.846665 h 0.169333 q 0.389465,0 0.660398,-0.237066 0.270933,-0.237066 0.507999,-1.032931 l 3.200394,-9.973714 h 2.082796 l 3.13266,10.21078 q 0.169333,0.592666 0.457199,0.812799 0.287867,0.220132 0.694266,0.220132 h 0.169333 v 0.846665 h -4.910657 v -0.846665 h 0.507999 q 0.287866,0 0.491065,-0.152399 0.2032,-0.1524 0.2032,-0.474133 0,-0.186266 -0.0508,-0.440265 -0.0508,-0.254 -0.1016,-0.423333 L 34.500137,72.48815 h -3.555993 l -0.4064,1.456263 q -0.0508,0.2032 -0.135466,0.507999 -0.06773,0.287867 -0.06773,0.507999 0,0.677332 0.711198,0.677332 h 0.575733 v 0.846665 z m 3.488259,-4.995323 h 2.929461 l -0.829731,-3.098794 q -0.169333,-0.592665 -0.321733,-1.185331 -0.1524,-0.609599 -0.254,-1.151464 -0.135466,0.507999 -0.287866,1.100664 -0.152399,0.592666 -0.321732,1.151465 z"
         style="font-style:normal;font-variant:normal;font-weight:bold;font-stretch:condensed;line-height:1.05;font-family:'Noto Serif';-inkscape-font-specification:'Noto Serif Bold Condensed';letter-spacing:0.0529167px"
         id="path7045" />
      <path
         d="m 39.311296,76.484408 v -0.846665 h 0.609598 q 0.3048,0 0.524933,-0.203199 0.237066,-0.2032 0.237066,-0.846665 v -8.263451 q 0,-0.660398 -0.237066,-0.863598 -0.237067,-0.220133 -0.592666,-0.220133 h -0.541865 v -0.846665 h 5.147723 v 0.846665 H 43.90022 q -0.423333,0 -0.626532,0.2032 -0.186267,0.203199 -0.186267,0.812798 v 9.245582 h 2.743195 q 0.491066,0 0.778932,-0.372533 0.287866,-0.372532 0.440266,-1.117597 l 0.253999,-1.269998 h 0.795865 l -0.08467,3.742259 z"
         style="font-style:normal;font-variant:normal;font-weight:bold;font-stretch:condensed;line-height:1.05;font-family:'Noto Serif';-inkscape-font-specification:'Noto Serif Bold Condensed';letter-spacing:0.0529167px"
         id="path7047" />
      <path
         d="m 49.033113,76.484408 v -0.846665 h 0.592665 q 0.355599,0 0.558799,-0.203199 0.220133,-0.220133 0.220133,-0.812799 v -8.297317 q 0,-0.711198 -0.237066,-0.897464 -0.237066,-0.186267 -0.575733,-0.186267 h -0.558798 v -0.846665 h 8.246517 l 0.0508,3.081861 h -1.049865 l -0.06773,-0.778932 q -0.0508,-0.609599 -0.3048,-0.965198 -0.237066,-0.355599 -0.761998,-0.355599 h -2.353729 v 4.301058 h 3.505193 v 0.982131 h -3.505193 v 4.842924 h 2.777061 q 0.541866,0 0.778932,-0.372533 0.237066,-0.389465 0.321733,-0.948264 l 0.1016,-0.778932 h 1.049864 l -0.08467,3.08186 z"
         style="font-style:normal;font-variant:normal;font-weight:bold;font-stretch:condensed;line-height:1.05;font-family:'Noto Serif';-inkscape-font-specification:'Noto Serif Bold Condensed';letter-spacing:0.0529167px"
         id="path7049" />
      <path
         d="m 58.738004,76.484408 v -0.846665 h 0.457199 q 0.406399,0 0.660399,-0.186266 0.253999,-0.203199 0.253999,-0.948265 v -8.195717 q 0,-0.694265 -0.253999,-0.880531 -0.254,-0.186267 -0.592666,-0.186267 h -0.524932 v -0.846665 h 3.522126 l 4.995324,8.703716 v -6.790253 q 0,-0.660399 -0.254,-0.863598 -0.237066,-0.2032 -0.575732,-0.2032 h -0.541866 v -0.846665 h 3.860793 v 0.846665 h -0.524932 q -0.372533,0 -0.609599,0.220133 -0.237066,0.220133 -0.237066,0.914398 v 10.10918 h -1.608664 l -5.537189,-9.550381 v 7.569185 q 0,0.745066 0.220133,0.948265 0.220133,0.186266 0.609599,0.186266 h 0.541865 v 0.846665 z"
         style="font-style:normal;font-variant:normal;font-weight:bold;font-stretch:condensed;line-height:1.05;font-family:'Noto Serif';-inkscape-font-specification:'Noto Serif Bold Condensed';letter-spacing:0.0529167px"
         id="path7051" />
      <path
         d="m 70.424069,76.484408 v -0.846665 h 0.609599 q 0.338666,0 0.541866,-0.220132 0.220133,-0.237067 0.220133,-0.863599 v -8.26345 q 0,-0.643466 -0.237066,-0.846665 -0.220133,-0.2032 -0.592666,-0.2032 h -0.541866 v -0.846665 h 4.893724 q 2.455329,0 3.843859,1.507064 1.405464,1.49013 1.405464,4.368791 0,1.84573 -0.592665,3.251194 -0.592666,1.405464 -1.761064,2.184396 -1.168397,0.778931 -2.895594,0.778931 z m 3.759193,-0.999064 h 0.795865 q 1.490131,0 2.252129,-1.388531 0.778932,-1.38853 0.778932,-3.826926 0,-2.455328 -0.778932,-3.674526 -0.761998,-1.219197 -2.252129,-1.219197 h -0.795865 z"
         style="font-style:normal;font-variant:normal;font-weight:bold;font-stretch:condensed;line-height:1.05;font-family:'Noto Serif';-inkscape-font-specification:'Noto Serif Bold Condensed';letter-spacing:0.0529167px"
         id="path7053" />
      <path
         d="m 81.144928,76.484408 v -0.846665 h 0.169333 q 0.389466,0 0.660399,-0.237066 0.270933,-0.237066 0.507999,-1.032931 l 3.200393,-9.973714 h 2.082796 l 3.132661,10.21078 q 0.169333,0.592666 0.457199,0.812799 0.287866,0.220132 0.694265,0.220132 h 0.169333 v 0.846665 h -4.910657 v -0.846665 h 0.507999 q 0.287866,0 0.491066,-0.152399 0.2032,-0.1524 0.2032,-0.474133 0,-0.186266 -0.0508,-0.440265 -0.0508,-0.254 -0.1016,-0.423333 L 87.867448,72.48815 h -3.555993 l -0.406399,1.456263 q -0.0508,0.2032 -0.135466,0.507999 -0.06773,0.287867 -0.06773,0.507999 0,0.677332 0.711199,0.677332 h 0.575732 v 0.846665 z m 3.48826,-4.995323 h 2.929461 l -0.829732,-3.098794 q -0.169333,-0.592665 -0.321733,-1.185331 -0.152399,-0.609599 -0.253999,-1.151464 -0.135467,0.507999 -0.287866,1.100664 -0.1524,0.592666 -0.321733,1.151465 z"
         style="font-style:normal;font-variant:normal;font-weight:bold;font-stretch:condensed;line-height:1.05;font-family:'Noto Serif';-inkscape-font-specification:'Noto Serif Bold Condensed';letter-spacing:0.0529167px"
         id="path7055" />
      <path
         d="M 92.678601,76.484408 V 75.637743 H 93.1866 q 0.338666,0 0.592666,-0.169333 0.270933,-0.186266 0.270933,-0.880531 v -8.280384 q 0,-0.694265 -0.287866,-0.880531 Q 93.4914,65.240697 93.1866,65.240697 h -0.507999 v -0.846665 h 4.809058 q 2.235195,0 3.183461,0.812799 0.9652,0.812798 0.9652,2.353728 0,0.948265 -0.28787,1.591731 -0.28787,0.626532 -0.762,1.015998 -0.47413,0.389465 -1.015996,0.575732 l 1.777996,3.48826 q 0.37253,0.728131 0.69427,1.066797 0.32173,0.338666 0.72813,0.338666 h 0.0847 v 0.846665 h -0.50799 q -1.27,0 -2.01507,-0.287866 -0.745062,-0.287866 -1.185328,-1.236131 l -1.727197,-3.742259 h -0.965198 v 3.369727 q 0,0.694265 0.220133,0.880531 0.237066,0.169333 0.609599,0.169333 h 0.406399 v 0.846665 z m 3.776126,-6.214521 h 0.745065 q 1.032932,0 1.473198,-0.643465 0.440265,-0.643465 0.440265,-1.89653 0,-1.236131 -0.457199,-1.811863 -0.457199,-0.575732 -1.43933,-0.575732 h -0.761999 z"
         style="font-style:normal;font-variant:normal;font-weight:bold;font-stretch:condensed;line-height:1.05;font-family:'Noto Serif';-inkscape-font-specification:'Noto Serif Bold Condensed';letter-spacing:0.0529167px"
         id="path7057" />
      <path
         d="m 103.46723,76.484408 v -0.795865 l 5.55412,-10.312379 h -2.89559 q -0.69427,0 -0.93134,0.423332 -0.22013,0.423333 -0.27093,1.083731 l -0.0677,0.880532 h -1.10067 l 0.0847,-3.369727 h 7.92478 v 0.812799 l -5.57105,10.295446 h 3.18346 q 0.62653,0 0.94826,-0.237066 0.32174,-0.237066 0.4572,-0.609599 0.13547,-0.372533 0.16934,-0.795865 l 0.0677,-0.745065 h 1.08373 l -0.0677,3.369726 z"
         style="font-style:normal;font-variant:normal;font-weight:bold;font-stretch:condensed;line-height:1.05;font-family:'Noto Serif';-inkscape-font-specification:'Noto Serif Bold Condensed';letter-spacing:0.0529167px"
         id="path7059" />
      <path
         d="m 116.77537,76.484408 v -0.98778 h 0.19756 q 0.45438,0 0.77047,-0.276578 0.31609,-0.276578 0.59267,-1.205092 l 3.7338,-11.636048 h 2.42994 l 3.65479,11.912627 q 0.19755,0.691446 0.5334,0.948269 0.33585,0.256822 0.80998,0.256822 h 0.19756 v 0.98778 h -5.72913 v -0.98778 h 0.59267 q 0.33584,0 0.57291,-0.1778 0.23707,-0.1778 0.23707,-0.553157 0,-0.217311 -0.0593,-0.513645 -0.0593,-0.296334 -0.11853,-0.49389 l -0.57291,-1.936049 h -4.14868 l -0.47413,1.698981 q -0.0593,0.237068 -0.15805,0.592668 -0.079,0.335846 -0.079,0.592668 0,0.790224 0.82973,0.790224 h 0.67169 v 0.98778 z m 4.06966,-5.827902 h 3.41772 l -0.96803,-3.615274 q -0.19755,-0.691446 -0.37536,-1.382892 -0.1778,-0.711202 -0.29633,-1.343381 -0.15804,0.592668 -0.33584,1.284114 -0.1778,0.691446 -0.37536,1.343381 z"
         style="font-style:normal;font-variant:normal;font-weight:bold;font-stretch:condensed;font-size:19.7556px;line-height:1.05;font-family:'Noto Serif';-inkscape-font-specification:'Noto Serif Bold Condensed';letter-spacing:0.0529167px"
         id="path7061" />
      <path
         d="m 130.15484,76.484408 v -0.846665 h 0.60959 q 0.33867,0 0.54187,-0.220132 0.22013,-0.237067 0.22013,-0.863599 v -8.26345 q 0,-0.643466 -0.23706,-0.846665 -0.22014,-0.2032 -0.59267,-0.2032 h -0.54186 v -0.846665 h 4.89372 q 2.45533,0 3.84386,1.507064 1.40546,1.49013 1.40546,4.368791 0,1.84573 -0.59266,3.251194 -0.59267,1.405464 -1.76107,2.184396 -1.16839,0.778931 -2.89559,0.778931 z m 3.75919,-0.999064 h 0.79586 q 1.49013,0 2.25213,-1.388531 0.77893,-1.38853 0.77893,-3.826926 0,-2.455328 -0.77893,-3.674526 -0.762,-1.219197 -2.25213,-1.219197 h -0.79586 z"
         style="font-style:normal;font-variant:normal;font-weight:bold;font-stretch:condensed;line-height:1.05;font-family:'Noto Serif';-inkscape-font-specification:'Noto Serif Bold Condensed';letter-spacing:0.0529167px"
         id="path7063" />
      <path
         d="m 144.58408,76.484408 -2.54,-10.346246 q -0.13546,-0.524932 -0.38946,-0.711198 -0.23707,-0.186267 -0.6604,-0.186267 h -0.18627 v -0.846665 h 4.99533 v 0.846665 h -0.3556 q -0.88053,0 -0.88053,0.728132 0,0.1524 0.0508,0.440266 0.0508,0.287866 0.1016,0.507999 l 0.94826,4.250258 q 0.13547,0.660399 0.3048,1.456264 0.16933,0.778932 0.23707,1.354664 0.1016,-0.575732 0.254,-1.185331 0.1524,-0.609599 0.33866,-1.303864 l 1.8288,-6.97652 h 1.35466 l 1.74413,6.654787 q 0.22013,0.829732 0.38947,1.557864 0.18626,0.728132 0.27093,1.269997 0.1016,-0.592665 0.23707,-1.28693 0.13546,-0.711199 0.3048,-1.490131 l 0.91439,-4.267191 q 0.0508,-0.220133 0.0847,-0.524933 0.0508,-0.304799 0.0508,-0.474132 0,-0.711199 -0.93133,-0.711199 h -0.3556 v -0.846665 h 3.87773 v 0.846665 h -0.28787 q -0.42333,0 -0.67733,0.237066 -0.23707,0.237067 -0.42333,1.083732 l -2.286,9.922913 h -1.99813 l -2.11666,-8.36505 -2.15053,8.36505 z"
         style="font-style:normal;font-variant:normal;font-weight:bold;font-stretch:condensed;line-height:1.05;font-family:'Noto Serif';-inkscape-font-specification:'Noto Serif Bold Condensed';letter-spacing:0.0529167px"
         id="path7065" />
      <path
         d="m 157.01522,76.484408 v -0.846665 h 0.59266 q 0.3556,0 0.5588,-0.203199 0.22014,-0.220133 0.22014,-0.812799 v -8.297317 q 0,-0.711198 -0.23707,-0.897464 -0.23707,-0.186267 -0.57573,-0.186267 h -0.5588 v -0.846665 h 8.24651 l 0.0508,3.081861 h -1.04986 l -0.0677,-0.778932 q -0.0508,-0.609599 -0.3048,-0.965198 -0.23707,-0.355599 -0.762,-0.355599 h -2.35373 v 4.301058 h 3.50519 v 0.982131 h -3.50519 v 4.842924 h 2.77706 q 0.54187,0 0.77893,-0.372533 0.23707,-0.389465 0.32174,-0.948264 l 0.1016,-0.778932 h 1.04986 l -0.0847,3.08186 z"
         style="font-style:normal;font-variant:normal;font-weight:bold;font-stretch:condensed;line-height:1.05;font-family:'Noto Serif';-inkscape-font-specification:'Noto Serif Bold Condensed';letter-spacing:0.0529167px"
         id="path7067" />
      <path
         d="m 166.72011,76.484408 v -0.846665 h 0.4572 q 0.4064,0 0.6604,-0.186266 0.254,-0.203199 0.254,-0.948265 v -8.195717 q 0,-0.694265 -0.254,-0.880531 -0.254,-0.186267 -0.59266,-0.186267 h -0.52494 v -0.846665 h 3.52213 l 4.99532,8.703716 v -6.790253 q 0,-0.660399 -0.254,-0.863598 -0.23706,-0.2032 -0.57573,-0.2032 h -0.54186 v -0.846665 h 3.86079 v 0.846665 h -0.52493 q -0.37254,0 -0.6096,0.220133 -0.23707,0.220133 -0.23707,0.914398 v 10.10918 h -1.60866 l -5.53719,-9.550381 v 7.569185 q 0,0.745066 0.22013,0.948265 0.22013,0.186266 0.6096,0.186266 h 0.54187 v 0.846665 z"
         style="font-style:normal;font-variant:normal;font-weight:bold;font-stretch:condensed;line-height:1.05;font-family:'Noto Serif';-inkscape-font-specification:'Noto Serif Bold Condensed';letter-spacing:0.0529167px"
         id="path7069" />
      <path
         d="m 180.20111,76.484408 v -0.846665 h 0.47413 q 0.4064,0 0.67733,-0.186266 0.27094,-0.186266 0.27094,-0.931331 v -9.143982 h -1.15147 q -0.6604,0 -0.9144,0.355599 -0.254,0.338666 -0.3048,0.897465 l -0.11853,0.982131 h -0.99906 l 0.0677,-3.217327 h 9.26251 l 0.0677,3.217327 h -0.99907 l -0.1016,-0.982131 q -0.0677,-0.558799 -0.32173,-0.897465 -0.254,-0.355599 -0.9144,-0.355599 h -1.15146 v 9.127048 q 0,0.745066 0.254,0.948265 0.27093,0.186266 0.7112,0.186266 h 0.45719 v 0.846665 z"
         style="font-style:normal;font-variant:normal;font-weight:bold;font-stretch:condensed;line-height:1.05;font-family:'Noto Serif';-inkscape-font-specification:'Noto Serif Bold Condensed';letter-spacing:0.0529167px"
         id="path7071" />
      <path
         d="m 193.2249,76.653741 q -1.69333,0 -2.81093,-0.778931 -1.11759,-0.778932 -1.67639,-2.184396 -0.54187,-1.405464 -0.54187,-3.28506 0,-1.879597 0.54187,-3.268127 0.5588,-1.388531 1.67639,-2.150529 1.13453,-0.778932 2.82786,-0.778932 1.59173,0 2.70933,0.778932 1.1176,0.761998 1.69333,2.167462 0.57573,1.388531 0.57573,3.268127 0,1.879596 -0.57573,3.28506 -0.57573,1.388531 -1.69333,2.167463 -1.1176,0.778931 -2.72626,0.778931 z m 0,-1.049864 q 1.35466,0 1.89653,-1.371597 0.5588,-1.371598 0.5588,-3.809993 0,-2.438395 -0.54187,-3.793059 -0.54186,-1.371597 -1.89653,-1.371597 -1.35466,0 -1.93039,1.371597 -0.57573,1.354664 -0.57573,3.793059 0,2.438395 0.57573,3.809993 0.57573,1.371597 1.91346,1.371597 z"
         style="font-style:normal;font-variant:normal;font-weight:bold;font-stretch:condensed;line-height:1.05;font-family:'Noto Serif';-inkscape-font-specification:'Noto Serif Bold Condensed';letter-spacing:0.0529167px"
         id="path7073" />
      <path
         d="m 202.52339,76.484408 -2.54,-10.346246 q -0.13546,-0.524932 -0.38946,-0.711198 -0.23707,-0.186267 -0.6604,-0.186267 h -0.18627 v -0.846665 h 4.99533 v 0.846665 h -0.3556 q -0.88054,0 -0.88054,0.728132 0,0.1524 0.0508,0.440266 0.0508,0.287866 0.1016,0.507999 l 0.94827,4.250258 q 0.13547,0.660399 0.3048,1.456264 0.16933,0.778932 0.23706,1.354664 0.1016,-0.575732 0.254,-1.185331 0.1524,-0.609599 0.33867,-1.303864 l 1.8288,-6.97652 h 1.35466 l 1.74413,6.654787 q 0.22013,0.829732 0.38947,1.557864 0.18626,0.728132 0.27093,1.269997 0.1016,-0.592665 0.23707,-1.28693 0.13546,-0.711199 0.30479,-1.490131 l 0.9144,-4.267191 q 0.0508,-0.220133 0.0847,-0.524933 0.0508,-0.304799 0.0508,-0.474132 0,-0.711199 -0.93133,-0.711199 h -0.3556 v -0.846665 h 3.87772 v 0.846665 h -0.28786 q -0.42333,0 -0.67733,0.237066 -0.23707,0.237067 -0.42334,1.083732 l -2.28599,9.922913 h -1.99813 l -2.11666,-8.36505 -2.15053,8.36505 z"
         style="font-style:normal;font-variant:normal;font-weight:bold;font-stretch:condensed;line-height:1.05;font-family:'Noto Serif';-inkscape-font-specification:'Noto Serif Bold Condensed';letter-spacing:0.0529167px"
         id="path7075" />
      <path
         d="m 216.96958,76.484408 v -0.846665 h 0.52493 q 0.44027,0 0.72814,-0.203199 0.28786,-0.2032 0.28786,-0.931332 v -2.539995 l -2.70933,-5.825055 q -0.23706,-0.491066 -0.42333,-0.694265 -0.18627,-0.2032 -0.62653,-0.2032 h -0.2032 v -0.846665 h 4.97839 v 0.846665 h -0.2032 q -0.44027,0 -0.67733,0.2032 -0.22014,0.203199 -0.22014,0.507999 0,0.203199 0.0677,0.457199 0.0677,0.253999 0.1524,0.474132 l 1.08373,2.370662 q 0.23707,0.507999 0.38946,0.914399 0.1524,0.389465 0.27094,0.778931 0.1524,-0.389466 0.3556,-0.880531 0.2032,-0.507999 0.42333,-1.049865 l 0.84666,-1.947329 q 0.1524,-0.3556 0.2032,-0.626532 0.0677,-0.270933 0.0677,-0.423333 0,-0.423332 -0.254,-0.592665 -0.23707,-0.186267 -0.72813,-0.186267 h -0.3048 v -0.846665 h 3.84386 v 0.846665 h -0.2032 q -0.37254,0 -0.6096,0.270933 -0.22014,0.270933 -0.57573,1.049865 l -2.50613,5.401722 v 2.523062 q 0,0.745065 0.27093,0.948265 0.27093,0.203199 0.6604,0.203199 h 0.6096 v 0.846665 z"
         style="font-style:normal;font-variant:normal;font-weight:bold;font-stretch:condensed;line-height:1.05;font-family:'Noto Serif';-inkscape-font-specification:'Noto Serif Bold Condensed';letter-spacing:0.0529167px"
         id="path7077" />
      <path
         d="m 133.17507,92.654081 v -0.705555 h 0.42334 q 0.31044,0 0.50799,-0.155222 0.21167,-0.169333 0.21167,-0.790221 V 84.17331 q 0,-0.578555 -0.21167,-0.733777 -0.19755,-0.155222 -0.47977,-0.155222 h -0.45156 v -0.705555 h 3.85233 q 1.76389,0 2.59644,0.77611 0.84667,0.776111 0.84667,2.201332 0,0.888999 -0.36689,1.622776 -0.36689,0.733778 -1.18533,1.171222 -0.80433,0.437444 -2.159,0.437444 h -0.43744 v 2.285998 q 0,0.578555 0.21166,0.733777 0.21167,0.141111 0.49389,0.141111 h 0.66322 v 0.705555 z m 3.13267,-4.656663 h 0.33866 q 0.90311,0 1.31233,-0.550333 0.40923,-0.550333 0.40923,-1.834443 0,-1.142999 -0.36689,-1.693332 -0.35278,-0.550333 -1.17122,-0.550333 h -0.52211 z"
         style="font-style:normal;font-variant:normal;font-weight:bold;font-stretch:condensed;font-size:14.1111px;line-height:1.05;font-family:'Noto Serif';-inkscape-font-specification:'Noto Serif Bold Condensed';text-align:end;letter-spacing:0.661458px;text-anchor:end"
         id="path7079" />
      <path
         d="m 141.67664,92.654081 v -0.635 h 0.381 q 0.254,0 0.4445,-0.127 0.2032,-0.1397 0.2032,-0.6604 v -6.2103 q 0,-0.5207 -0.2159,-0.6604 -0.2032,-0.1397 -0.4318,-0.1397 h -0.381 v -0.635 h 3.6068 q 1.6764,0 2.3876,0.6096 0.7239,0.6096 0.7239,1.7653 0,0.7112 -0.2159,1.1938 -0.2159,0.4699 -0.5715,0.762 -0.3556,0.2921 -0.762,0.4318 l 1.3335,2.6162 q 0.2794,0.5461 0.5207,0.8001 0.2413,0.254 0.5461,0.254 h 0.0635 v 0.635 h -0.381 q -0.9525,0 -1.5113,-0.2159 -0.5588,-0.2159 -0.889,-0.9271 l -1.2954,-2.8067 h -0.7239 v 2.5273 q 0,0.5207 0.1651,0.6604 0.1778,0.127 0.4572,0.127 h 0.3048 v 0.635 z m 2.8321,-4.6609 h 0.5588 q 0.7747,0 1.1049,-0.4826 0.3302,-0.4826 0.3302,-1.4224 0,-0.9271 -0.3429,-1.3589 -0.3429,-0.4318 -1.0795,-0.4318 h -0.5715 z"
         style="font-style:normal;font-variant:normal;font-weight:bold;font-stretch:condensed;font-size:12.7px;line-height:1.05;font-family:'Noto Serif';-inkscape-font-specification:'Noto Serif Bold Condensed';text-align:end;letter-spacing:0.661458px;text-anchor:end"
         id="path7081" />
      <path
         d="m 154.18719,92.781081 q -1.27,0 -2.1082,-0.5842 -0.8382,-0.5842 -1.2573,-1.6383 -0.4064,-1.0541 -0.4064,-2.4638 0,-1.4097 0.4064,-2.4511 0.4191,-1.0414 1.2573,-1.6129 0.8509,-0.5842 2.1209,-0.5842 1.1938,0 2.032,0.5842 0.8382,0.5715 1.27,1.6256 0.4318,1.0414 0.4318,2.4511 0,1.4097 -0.4318,2.4638 -0.4318,1.0414 -1.27,1.6256 -0.8382,0.5842 -2.0447,0.5842 z m 0,-0.7874 q 1.016,0 1.4224,-1.0287 0.4191,-1.0287 0.4191,-2.8575 0,-1.8288 -0.4064,-2.8448 -0.4064,-1.0287 -1.4224,-1.0287 -1.016,0 -1.4478,1.0287 -0.4318,1.016 -0.4318,2.8448 0,1.8288 0.4318,2.8575 0.4318,1.0287 1.4351,1.0287 z"
         style="font-style:normal;font-variant:normal;font-weight:bold;font-stretch:condensed;font-size:12.7px;line-height:1.05;font-family:'Noto Serif';-inkscape-font-specification:'Noto Serif Bold Condensed';text-align:end;letter-spacing:0.661458px;text-anchor:end"
         id="path7083" />
      <path
         d="m 163.90375,92.781081 q -1.3716,0 -2.286,-0.5842 -0.9017,-0.5842 -1.3589,-1.6256 -0.4445,-1.0541 -0.4445,-2.4638 0,-1.3716 0.4699,-2.413 0.4699,-1.0541 1.3843,-1.6383 0.9271,-0.5969 2.286,-0.5969 1.3716,0 2.0701,0.4191 0.7112,0.4191 0.7112,1.0414 0,0.4445 -0.3556,0.7493 -0.3556,0.2921 -1.0668,0.2921 0,-0.7366 -0.3429,-1.2319 -0.3302,-0.4953 -1.0414,-0.4953 -1.1811,0 -1.7018,0.9906 -0.508,0.9906 -0.508,2.8829 0,1.8669 0.5334,2.8702 0.5334,0.9906 1.8161,0.9906 0.3937,0 0.7747,-0.1143 v -1.9177 q 0,-0.508 -0.1905,-0.6985 -0.1778,-0.1905 -0.5588,-0.1905 h -0.1651 v -0.6477 h 3.4544 v 0.6477 h -0.1143 q -0.3429,0 -0.4826,0.1905 -0.1397,0.1905 -0.1397,0.7493 v 2.1336 q -0.6477,0.3302 -1.3208,0.4953 -0.6604,0.1651 -1.4224,0.1651 z"
         style="font-style:normal;font-variant:normal;font-weight:bold;font-stretch:condensed;font-size:12.7px;line-height:1.05;font-family:'Noto Serif';-inkscape-font-specification:'Noto Serif Bold Condensed';text-align:end;letter-spacing:0.661458px;text-anchor:end"
         id="path7085" />
      <path
         d="m 168.71808,92.654081 v -0.635 h 0.381 q 0.254,0 0.4445,-0.127 0.2032,-0.1397 0.2032,-0.6604 v -6.2103 q 0,-0.5207 -0.2159,-0.6604 -0.2032,-0.1397 -0.4318,-0.1397 h -0.381 v -0.635 h 3.6068 q 1.6764,0 2.3876,0.6096 0.7239,0.6096 0.7239,1.7653 0,0.7112 -0.2159,1.1938 -0.2159,0.4699 -0.5715,0.762 -0.3556,0.2921 -0.762,0.4318 l 1.3335,2.6162 q 0.2794,0.5461 0.5207,0.8001 0.2413,0.254 0.5461,0.254 h 0.0635 v 0.635 h -0.381 q -0.9525,0 -1.5113,-0.2159 -0.5588,-0.2159 -0.889,-0.9271 l -1.2954,-2.8067 h -0.7239 v 2.5273 q 0,0.5207 0.1651,0.6604 0.1778,0.127 0.4572,0.127 h 0.3048 v 0.635 z m 2.8321,-4.6609 h 0.5588 q 0.7747,0 1.1049,-0.4826 0.3302,-0.4826 0.3302,-1.4224 0,-0.9271 -0.3429,-1.3589 -0.3429,-0.4318 -1.0795,-0.4318 h -0.5715 z"
         style="font-style:normal;font-variant:normal;font-weight:bold;font-stretch:condensed;font-size:12.7px;line-height:1.05;font-family:'Noto Serif';-inkscape-font-specification:'Noto Serif Bold Condensed';text-align:end;letter-spacing:0.661458px;text-anchor:end"
         id="path7087" />
      <path
         d="m 177.02494,92.654081 v -0.635 h 0.127 q 0.2921,0 0.4953,-0.1778 0.2032,-0.1778 0.381,-0.7747 l 2.4003,-7.4803 h 1.5621 l 2.3495,7.6581 q 0.127,0.4445 0.3429,0.6096 0.2159,0.1651 0.5207,0.1651 h 0.127 v 0.635 h -3.683 v -0.635 h 0.381 q 0.2159,0 0.3683,-0.1143 0.1524,-0.1143 0.1524,-0.3556 0,-0.1397 -0.0381,-0.3302 -0.0381,-0.1905 -0.0762,-0.3175 l -0.3683,-1.2446 h -2.667 l -0.3048,1.0922 q -0.0381,0.1524 -0.1016,0.381 -0.0508,0.2159 -0.0508,0.381 0,0.508 0.5334,0.508 h 0.4318 v 0.635 z m 2.6162,-3.7465 h 2.1971 l -0.6223,-2.3241 q -0.127,-0.4445 -0.2413,-0.889 -0.1143,-0.4572 -0.1905,-0.8636 -0.1016,0.381 -0.2159,0.8255 -0.1143,0.4445 -0.2413,0.8636 z"
         style="font-style:normal;font-variant:normal;font-weight:bold;font-stretch:condensed;font-size:12.7px;line-height:1.05;font-family:'Noto Serif';-inkscape-font-specification:'Noto Serif Bold Condensed';text-align:end;letter-spacing:0.661458px;text-anchor:end"
         id="path7089" />
      <path
         d="m 186.29698,92.654081 v -0.635 h 0.3429 q 0.3048,0 0.4953,-0.1524 0.1905,-0.1524 0.1905,-0.635 v -6.2103 q 0,-0.4826 -0.1905,-0.635 -0.1778,-0.1651 -0.4191,-0.1651 h -0.4191 v -0.635 h 3.2385 l 1.7399,6.3881 1.6891,-6.3881 h 3.2639 v 0.635 h -0.4445 q -0.2286,0 -0.4064,0.1524 -0.1651,0.1524 -0.1651,0.635 v 6.223 q 0,0.4826 0.1651,0.635 0.1651,0.1524 0.4572,0.1524 h 0.3937 v 0.635 h -3.6195 v -0.635 h 0.1397 q 0.3683,0 0.5334,-0.1524 0.1651,-0.1651 0.1651,-0.6731 v -6.4262 l -2.1209,7.8867 h -0.9525 l -2.2098,-7.874 v 6.3881 q 0,0.5588 0.2159,0.7112 0.2159,0.1397 0.6096,0.1397 h 0.0762 v 0.635 z"
         style="font-style:normal;font-variant:normal;font-weight:bold;font-stretch:condensed;font-size:12.7px;line-height:1.05;font-family:'Noto Serif';-inkscape-font-specification:'Noto Serif Bold Condensed';text-align:end;letter-spacing:0.661458px;text-anchor:end"
         id="path7091" />
      <path
         d="m 197.49944,92.654081 v -0.635 h 0.4572 q 0.2286,0 0.3937,-0.1524 0.1778,-0.1524 0.1778,-0.635 v -6.1976 q 0,-0.4953 -0.1778,-0.6477 -0.1651,-0.1651 -0.3937,-0.1651 h -0.4572 v -0.635 h 3.8608 v 0.635 h -0.4572 q -0.254,0 -0.4191,0.1651 -0.1651,0.1524 -0.1651,0.6477 v 6.1976 q 0,0.4572 0.1651,0.6223 0.1651,0.1651 0.4191,0.1651 h 0.4572 v 0.635 z"
         style="font-style:normal;font-variant:normal;font-weight:bold;font-stretch:condensed;font-size:12.7px;line-height:1.05;font-family:'Noto Serif';-inkscape-font-specification:'Noto Serif Bold Condensed';text-align:end;letter-spacing:0.661458px;text-anchor:end"
         id="path7093" />
      <path
         d="m 205.33639,92.781081 q -1.0287,0 -1.6129,-0.254 -0.5715,-0.2667 -0.8128,-0.6604 -0.2413,-0.4064 -0.2413,-0.8382 0,-0.6096 0.3683,-0.8636 0.381,-0.2667 0.8763,-0.2667 0.0127,1.0795 0.4699,1.6256 0.4699,0.5461 1.1303,0.5461 0.635,0 0.9779,-0.4064 0.3429,-0.4064 0.3429,-1.0033 0,-0.6985 -0.4826,-1.1049 -0.4826,-0.4064 -1.397,-0.8509 -1.143,-0.5461 -1.6002,-1.1938 -0.4572,-0.6604 -0.4572,-1.6129 0,-0.7366 0.3556,-1.2827 0.3683,-0.5588 0.9779,-0.8509 0.6223,-0.3048 1.4097,-0.3048 0.8128,0 1.3335,0.2159 0.5334,0.2159 0.7874,0.5588 0.2667,0.3429 0.2667,0.7239 0,0.4318 -0.3175,0.6985 -0.3175,0.2667 -1.0287,0.2667 0,-0.4064 -0.1397,-0.8001 -0.127,-0.4064 -0.4064,-0.6604 -0.2667,-0.2667 -0.6858,-0.2667 -0.4826,0 -0.7874,0.3302 -0.3048,0.3175 -0.3048,0.9144 0,0.3683 0.1397,0.6731 0.1524,0.3048 0.5461,0.5969 0.4064,0.2921 1.1557,0.635 1.1557,0.5334 1.6383,1.1684 0.4826,0.6223 0.4826,1.5875 0,0.8255 -0.3683,1.4224 -0.3683,0.5969 -1.0414,0.9271 -0.6731,0.3302 -1.5748,0.3302 z"
         style="font-style:normal;font-variant:normal;font-weight:bold;font-stretch:condensed;font-size:12.7px;line-height:1.05;font-family:'Noto Serif';-inkscape-font-specification:'Noto Serif Bold Condensed';text-align:end;letter-spacing:0.661458px;text-anchor:end"
         id="path7095" />
      <path
         d="m 210.91274,92.654081 v -0.635 h 0.3556 q 0.3048,0 0.508,-0.1397 0.2032,-0.1397 0.2032,-0.6985 v -6.858 h -0.8636 q -0.4953,0 -0.6858,0.2667 -0.1905,0.254 -0.2286,0.6731 l -0.0889,0.7366 h -0.7493 l 0.0508,-2.413 h 6.9469 l 0.0508,2.413 h -0.7493 l -0.0762,-0.7366 q -0.0508,-0.4191 -0.2413,-0.6731 -0.1905,-0.2667 -0.6858,-0.2667 h -0.8636 v 6.8453 q 0,0.5588 0.1905,0.7112 0.2032,0.1397 0.5334,0.1397 h 0.3429 v 0.635 z"
         style="font-style:normal;font-variant:normal;font-weight:bold;font-stretch:condensed;font-size:12.7px;line-height:1.05;font-family:'Noto Serif';-inkscape-font-specification:'Noto Serif Bold Condensed';text-align:end;letter-spacing:0.661458px;text-anchor:end"
         id="path7097" />
      <path
         d="m 218.99098,92.654081 v -0.635 h 0.3937 q 0.3302,0 0.5461,-0.1524 0.2159,-0.1524 0.2159,-0.6985 v -1.905 l -2.032,-4.3688 q -0.1778,-0.3683 -0.3175,-0.5207 -0.1397,-0.1524 -0.4699,-0.1524 h -0.1524 v -0.635 h 3.7338 v 0.635 h -0.1524 q -0.3302,0 -0.508,0.1524 -0.1651,0.1524 -0.1651,0.381 0,0.1524 0.0508,0.3429 0.0508,0.1905 0.1143,0.3556 l 0.8128,1.778 q 0.1778,0.381 0.2921,0.6858 0.1143,0.2921 0.2032,0.5842 0.1143,-0.2921 0.2667,-0.6604 0.1524,-0.381 0.3175,-0.7874 l 0.635,-1.4605 q 0.1143,-0.2667 0.1524,-0.4699 0.0508,-0.2032 0.0508,-0.3175 0,-0.3175 -0.1905,-0.4445 -0.1778,-0.1397 -0.5461,-0.1397 h -0.2286 v -0.635 h 2.8829 v 0.635 h -0.1524 q -0.2794,0 -0.4572,0.2032 -0.1651,0.2032 -0.4318,0.7874 l -1.8796,4.0513 v 1.8923 q 0,0.5588 0.2032,0.7112 0.2032,0.1524 0.4953,0.1524 h 0.4572 v 0.635 z"
         style="font-style:normal;font-variant:normal;font-weight:bold;font-stretch:condensed;font-size:12.7px;line-height:1.05;font-family:'Noto Serif';-inkscape-font-specification:'Noto Serif Bold Condensed';text-align:end;letter-spacing:0.661458px;text-anchor:end"
         id="path7099" />
    </g>
  </g>
</svg>
